<svg id="Layer_1" data-name="Layer 1" xmlns="http://www.w3.org/2000/svg" xmlns:xlink="http://www.w3.org/1999/xlink" viewBox="0 0 278.96 156.96"><defs><style>.cls-1,.cls-2{isolation:isolate;}.cls-2{font-size:18px;fill:#630c0d;font-family:Caveat-Regular, Caveat;}.cls-3{letter-spacing:0.01em;}.cls-4{letter-spacing:-0.01em;}.cls-5{letter-spacing:0em;}.cls-6{letter-spacing:-0.01em;}.cls-7{letter-spacing:0em;}.cls-8{letter-spacing:0em;}.cls-9{letter-spacing:0.02em;}.cls-10{letter-spacing:0em;}.cls-11{letter-spacing:0.01em;}.cls-12{letter-spacing:-0.01em;}.cls-13{letter-spacing:0.01em;}</style></defs><title>front_image_logo</title><image class="cls-1" width="694" height="654" transform="scale(0.24)" xlink:href="D:%5CHolmesglenSubject_2020_sem_1%5Ccert4_holmesglen_sem1_putfilesinsubject2020_KEEP%5CAnalytics_traffic_flow%5Cwebanalytics_logo%5CwebAnalytics_logo.png"/><g class="cls-1"><text class="cls-2" transform="translate(167.4 27)"><tspan class="cls-3">W</tspan><tspan x="13.14" y="0">eb </tspan><tspan class="cls-3" x="31.18" y="0">D</tspan><tspan x="41.76" y="0">ev</tspan><tspan class="cls-3" x="53.57" y="0">e</tspan><tspan x="59.6" y="0">lopme</tspan><tspan class="cls-4" x="91.73" y="0">n</tspan><tspan class="cls-5" x="99.65" y="0">t </tspan></text><text class="cls-2" transform="translate(214.8 48.6)"><tspan class="cls-6">A</tspan><tspan x="8.86" y="0">nima</tspan><tspan class="cls-7" x="38.27" y="0">t</tspan><tspan class="cls-8" x="44.32" y="0">ion</tspan></text><text class="cls-2" transform="translate(195.3 70.2)"><tspan class="cls-9">D</tspan><tspan x="10.67" y="0">i</tspan><tspan class="cls-3" x="14.04" y="0">g</tspan><tspan class="cls-8" x="20.61" y="0">ital </tspan><tspan class="cls-4" x="45.2" y="0">A</tspan><tspan x="54.05" y="0">r</tspan><tspan class="cls-10" x="60.53" y="0">t</tspan><tspan x="66.58" y="0">i</tspan><tspan class="cls-11" x="69.95" y="0">s</tspan><tspan x="76.26" y="0">t</tspan></text><text class="cls-2" transform="translate(210.8 91.8)"><tspan class="cls-6">M</tspan><tspan class="cls-3" x="12.78" y="0">ul</tspan><tspan class="cls-10" x="22.84" y="0">t</tspan><tspan x="28.89" y="0">imedia</tspan></text><text class="cls-2" transform="translate(229 113.4)">G<tspan class="cls-12" x="8.77" y="0">r</tspan><tspan class="cls-8" x="15.16" y="0">aphic</tspan></text><text class="cls-2" transform="translate(244.7 135)">P<tspan class="cls-13" x="8.35" y="0">r</tspan><tspan x="14.92" y="0">i</tspan><tspan class="cls-4" x="18.29" y="0">n</tspan><tspan class="cls-5" x="26.21" y="0">t</tspan></text></g></svg>