<svg xmlns="http://www.w3.org/2000/svg" viewBox="0 0 65.28 90.17"><defs><style>.cls-1,.cls-2,.cls-3{fill:#640d0d;}.cls-2{font-size:10px;}.cls-2,.cls-3{font-family:MVBoli, MV Boli;}.cls-3{font-size:9.81px;}</style></defs><title>logoDebbie</title><g id="Layer_2" data-name="Layer 2"><g id="Layer_1-2" data-name="Layer 1"><path class="cls-1" d="M32.23,24.31a32.05,32.05,0,0,1-14,21.86C15.5,48,12.07,50,12.06,53.27c0,2.23,1.77,4.13,3.81,5,5.35,2.26,11.25-1.23,17-2.16,8.59-1.38,17.27,3.33,22.67,10.14s8,15.4,9.88,23.93" transform="translate(-0.13)"/><ellipse class="cls-1" cx="35.05" cy="11.59" rx="11.72" ry="10.09" transform="translate(13.53 41.68) rotate(-72.9)"/><path class="cls-1" d="M43.74,35.28c3.09,4,6.95,5.52,11.88,3.39,4.05-1.76,5.38-6.51,5.59-10.59s.15-8.09,0-12.08C61,11.51,58.56,8.61,57.4,4.47l0,11.88L58,14.66c.69-1.44.06-4.79.06-6.38S57.3,3.35,58,1.91c-1.69,3.5-.69,9-.65,12.79,0,4.86,3.73,8.19,3.8,13.06l0-11.88c-.42,4.32-1.89,8.79-6.36,10.28-4.86,1.61-8.09.28-11.09-3.63.64.84-.07,5.24-.07,6.37,0,1.31-.76,5.3.07,6.38Z" transform="translate(-0.13)"/><path class="cls-1" d="M22.48,40.12c3-2.57,2.6-5,2.62-8.66,0-3.12,1-7.87-1.25-10.42-3-3.4-9.13-4.82-13.31-5.7C5.49,14.28.82,14.93.39,8.72V21.24c.17-2,1.09-3.83,1.72-5.77C3.35,11.6.86,6.54,2.1,2.72A26.83,26.83,0,0,0,.32,11.65c0,3.83-.6,8.3.41,12,1.16,4.33,8,3.94,11.73,4.79C16.41,29.4,24,31.58,25,36.14V23.39c-.22,1.87-1.15,2.78-2.55,4-.65.56-.06,5.46-.06,6.38s.72,5.81.06,6.37Z" transform="translate(-0.13)"/><text class="cls-2" transform="translate(5.12 72.41)">animated</text><text class="cls-3" transform="translate(30.1 80.44)">web</text></g></g></svg>